<svg width="30" height="31" viewBox="0 0 30 31" fill="none" xmlns="http://www.w3.org/2000/svg">
<path d="M20.2979 18.7295H19.536L19.0479 16.7126V14.2087C19.0466 13.1225 18.667 12.073 17.9784 11.2524C17.2898 10.4317 16.3382 9.89466 15.2979 9.73949V9.04199H14.0479V9.73949C13.0075 9.89466 12.0559 10.4317 11.3673 11.2524C10.6787 12.073 10.2991 13.1225 10.2979 14.2087V16.7126L9.80973 18.7295H9.04785V20.0212H12.2616C12.398 20.575 12.7091 21.0661 13.1458 21.4169C13.5825 21.7676 14.1198 21.9581 14.6729 21.9581C15.2259 21.9581 15.7632 21.7676 16.1999 21.4169C16.6366 21.0661 16.9477 20.575 17.0841 20.0212H20.2979V18.7295ZM11.5291 16.9489L11.5479 14.2087C11.5479 13.3522 11.8771 12.5309 12.4631 11.9253C13.0492 11.3197 13.844 10.9795 14.6729 10.9795C15.5017 10.9795 16.2965 11.3197 16.8826 11.9253C17.4686 12.5309 17.7979 13.3522 17.7979 14.2087V16.792L18.2529 18.7295H11.0985L11.5291 16.9489ZM14.6729 20.667C14.4544 20.6663 14.24 20.6063 14.0511 20.4929C13.8622 20.3796 13.7054 20.2169 13.5966 20.0212H15.7491C15.6403 20.2169 15.4835 20.3796 15.2946 20.4929C15.1057 20.6063 14.8913 20.6663 14.6729 20.667Z" fill="#9A9AB0"/>
</svg>
